<?xml version="1.0" standalone="no"?>
<!DOCTYPE svg PUBLIC "-//W3C//DTD SVG 20010904//EN"
 " `http://www.w3.org/TR/2001/REC-SVG-20010904/DTD/svg10.dtd` ">
<svg version="1.0" xmlns=" `http://www.w3.org/2000/svg` "
 width="1024.000000pt" height="1024.000000pt" viewBox="0 0 1024.000000 1024.000000"
 preserveAspectRatio="xMidYMid meet">

<g transform="translate(0.000000,1024.000000) scale(0.100000,-0.100000)"
fill="#000000" stroke="none">
<path d="M4526 9903 c-86 -190 -466 -1011 -631 -1363 -93 -199 -315 -677 -395
-850 -31 -69 -114 -244 -183 -390 -69 -146 -170 -362 -225 -480 -55 -118 -124
-264 -152 -325 -29 -60 -99 -209 -155 -330 -57 -121 -140 -299 -185 -395 -127
-270 -155 -330 -255 -545 -111 -240 -506 -1072 -735 -1550 -40 -82 -109 -229
-155 -325 -46 -96 -126 -264 -179 -374 -53 -109 -96 -200 -96 -201 0 -3 -67
-143 -309 -644 -83 -172 -151 -315 -151 -317 0 -2 282 -4 628 -4 l627 0 124
263 c69 144 193 406 277 582 83 176 213 451 289 610 76 160 200 423 277 585
77 162 153 322 168 355 15 33 85 182 155 330 133 282 371 790 655 1400 129
277 539 1153 657 1403 8 17 18 32 22 32 6 0 501 -960 501 -972 0 -3 133 -274
295 -602 162 -328 295 -599 295 -601 0 -3 -253 -5 -562 -5 -518 0 -569 -2
-635 -19 -165 -43 -195 -73 -708 -721 -76 -96 -143 -181 -148 -187 -8 -10 315
-13 1604 -13 l1614 0 26 43 c15 23 79 126 143 230 l116 187 -65 129 c-35 72
-105 214 -154 318 -49 103 -155 322 -235 487 -80 164 -146 299 -146 301 0 1
-79 166 -176 366 -97 200 -198 409 -224 464 -26 55 -111 230 -189 389 -77 159
-141 290 -141 291 0 1 -45 96 -101 211 -56 115 -195 405 -309 644 -114 239
-270 563 -345 720 -215 446 -393 818 -432 903 -20 42 -39 77 -42 77 -4 0 -29
-48 -55 -107z"/>
<path d="M7926 5317 c-16 -23 -80 -114 -141 -202 -245 -351 -755 -1107 -755
-1118 0 -3 26 3 58 14 194 67 366 93 587 87 l162 -4 160 241 c89 132 278 415
422 628 144 213 261 390 261 393 0 2 -163 4 -362 4 l-363 -1 -29 -42z"/>
<path d="M5580 4084 c0 -3 94 -139 208 -302 272 -387 273 -388 365 -520 43
-62 81 -112 83 -110 2 3 28 54 57 114 63 127 145 251 229 347 l60 68 -55 82
c-79 118 -175 257 -204 295 l-24 32 -360 0 c-197 0 -359 -3 -359 -6z"/>
<path d="M3610 2891 l0 -1081 235 0 235 0 0 425 0 425 293 1 c305 0 312 1 405
19 250 49 428 168 511 343 55 114 75 216 68 334 -17 258 -159 442 -419 546
-147 59 -155 60 -765 64 l-563 4 0 -1080z m1077 684 c127 -45 198 -137 198
-255 0 -159 -119 -258 -350 -290 -38 -5 -156 -10 -261 -10 l-191 0 -6 128 c-4
70 -7 200 -7 290 l0 163 283 -4 c243 -3 289 -6 334 -22z"/>
<path d="M7535 3963 c-316 -28 -593 -152 -823 -368 -123 -116 -209 -233 -287
-390 -133 -266 -173 -568 -113 -835 5 -25 12 -56 14 -70 10 -51 58 -177 96
-255 193 -389 526 -651 943 -740 94 -21 307 -28 415 -14 186 23 398 98 550
194 l35 22 260 -304 c143 -168 274 -321 291 -341 17 -21 78 -91 135 -157 57
-66 135 -157 173 -202 79 -95 124 -128 204 -148 99 -26 206 7 272 81 49 57 64
99 64 189 1 135 3 133 -404 465 -124 101 -243 200 -266 219 -22 20 -60 52 -84
71 -24 19 -85 69 -135 110 -51 41 -133 108 -183 149 l-91 74 50 60 c138 166
254 428 286 647 15 102 9 378 -11 468 -63 295 -212 551 -434 747 -205 181
-443 287 -717 320 -116 14 -156 15 -240 8z m335 -362 c105 -26 263 -103 350
-169 232 -176 380 -456 397 -752 23 -399 -202 -783 -563 -960 -160 -79 -226
-93 -439 -94 -160 -1 -189 2 -260 22 -367 106 -644 412 -720 797 -16 80 -16
234 -1 326 53 321 231 573 526 742 57 33 242 95 317 107 94 14 296 5 393 -19z"/>
<path d="M7629 3486 c-2 -2 -31 -5 -64 -7 -71 -3 -219 -40 -291 -73 -230 -105
-423 -339 -479 -578 -20 -90 -29 -195 -20 -262 6 -56 14 -67 252 -384 135
-180 255 -337 266 -349 20 -23 23 -23 297 -23 245 0 283 2 331 19 77 27 129
53 129 65 0 6 -78 108 -173 226 -228 285 -496 617 -572 710 -33 41 -109 135
-169 208 -61 75 -106 138 -103 146 15 39 169 129 287 168 85 27 109 31 225 32
117 1 139 -2 220 -28 282 -89 470 -257 616 -550 38 -77 69 -146 69 -153 0 -7
5 -13 11 -13 8 0 9 22 4 76 -24 256 -165 487 -387 631 -110 71 -190 101 -342
128 -97 17 -101 17 -107 11z"/>
<path d="M6126 2861 c-40 -44 -723 -1013 -734 -1043 -2 -4 160 -8 360 -7 l363
0 74 115 74 115 -37 113 c-62 191 -76 290 -73 524 2 111 0 202 -3 202 -4 0
-14 -8 -24 -19z"/>
</g>
</svg>